<?xml version="1.0" standalone="no"?>
<!DOCTYPE svg PUBLIC "-//W3C//DTD SVG 20010904//EN"
 "http://www.w3.org/TR/2001/REC-SVG-20010904/DTD/svg10.dtd">
<svg version="1.0" xmlns="http://www.w3.org/2000/svg"
 width="152.000000pt" height="112.000000pt" viewBox="0 0 152.000000 112.000000"
 preserveAspectRatio="xMidYMid meet">

<g transform="translate(0.000000,112.000000) scale(0.100000,-0.100000)"
fill="#000000" stroke="none">
<path d="M696 1011 c-4 -7 -5 -15 -2 -18 9 -9 19 4 14 18 -4 11 -6 11 -12 0z"/>
<path d="M530 979 c0 -5 5 -7 10 -4 6 3 10 8 10 11 0 2 -4 4 -10 4 -5 0 -10
-5 -10 -11z"/>
<path d="M645 974 c-10 -8 -15 -17 -12 -21 4 -3 14 2 22 13 8 11 15 14 15 7 0
-15 40 -18 40 -3 0 6 -3 10 -7 11 -5 0 -15 2 -24 4 -8 1 -23 -4 -34 -11z"/>
<path d="M550 965 c-18 -21 -2 -35 33 -28 24 5 40 33 18 33 -5 0 -16 2 -24 5
-7 3 -20 -1 -27 -10z"/>
<path d="M670 940 c-12 -7 -12 -12 4 -29 11 -12 25 -21 33 -21 7 0 13 -5 13
-11 0 -5 5 -7 10 -4 6 3 10 -1 10 -9 0 -11 9 -16 28 -16 26 1 26 1 7 15 -11 8
-25 19 -31 24 -7 5 -13 9 -15 7 -2 -1 -15 9 -28 23 -15 15 -18 22 -7 18 9 -4
16 -2 16 3 0 13 -20 13 -40 0z"/>
<path d="M617 934 c-13 -14 -7 -54 8 -54 8 0 15 9 15 20 0 11 0 23 1 27 1 10
-16 15 -24 7z"/>
<path d="M572 921 c-11 -7 -10 -10 3 -15 23 -9 25 -8 25 9 0 17 -9 19 -28 6z"/>
<path d="M647 891 c-5 -21 9 -41 29 -41 22 0 26 21 8 41 -22 24 -30 24 -37 0z"/>
<path d="M560 891 c0 -13 26 -32 33 -24 7 6 10 -16 8 -52 -1 -13 4 -7 14 14
18 41 18 41 1 41 -7 0 -19 7 -26 15 -14 17 -30 20 -30 6z"/>
<path d="M533 862 c-8 -14 -7 -23 3 -37 18 -25 29 -13 14 17 -11 22 -10 22 4
4 9 -11 16 -23 16 -28 0 -4 5 -8 11 -8 17 0 6 42 -16 56 -18 12 -22 11 -32 -4z"/>
<path d="M637 852 c-3 -4 -8 -22 -12 -39 -5 -25 -2 -39 13 -58 12 -15 23 -21
27 -15 8 12 -3 32 -15 25 -4 -2 -10 6 -12 20 -4 19 -2 23 7 15 8 -7 15 -3 22
13 9 19 8 26 -8 35 -10 6 -20 8 -22 4z"/>
<path d="M700 846 c0 -9 7 -16 16 -16 17 0 14 22 -4 28 -7 2 -12 -3 -12 -12z"/>
<path d="M505 820 c-3 -5 1 -10 10 -10 9 0 13 5 10 10 -3 6 -8 10 -10 10 -2 0
-7 -4 -10 -10z"/>
<path d="M671 801 c-6 -11 -7 -22 -2 -25 5 -3 11 4 14 16 8 30 1 35 -12 9z"/>
<path d="M406 775 c-14 -13 -29 -39 -33 -56 l-6 -31 -12 30 c-21 48 -131 90
-172 64 -6 -4 13 -7 42 -7 62 0 103 -24 118 -70 8 -23 6 -31 -9 -42 -27 -20
-51 -16 -78 13 -25 28 -51 28 -62 -1 -9 -21 11 -41 47 -49 17 -3 46 -21 65
-40 29 -29 34 -41 34 -79 0 -81 -60 -127 -144 -111 -47 8 -96 54 -96 88 0 23
4 26 38 26 26 0 41 -6 50 -20 14 -24 45 -26 62 -5 20 24 -11 60 -63 73 -52 13
-64 26 -82 84 -8 24 -14 35 -14 26 -3 -55 46 -114 105 -129 41 -11 60 -31 48
-50 -10 -16 -39 -10 -52 12 -10 16 -21 19 -55 17 -38 -3 -42 -6 -45 -31 -7
-59 101 -126 177 -111 17 4 44 21 61 41 56 63 32 156 -51 202 -20 12 -44 21
-54 21 -10 0 -15 6 -13 17 5 26 34 28 41 3 5 -20 25 -25 90 -20 l27 2 0 -99
c0 -73 4 -104 16 -121 46 -66 160 -70 218 -7 l23 25 -4 -24 c-6 -29 0 -33 57
-37 l45 -4 11 44 c13 56 30 63 38 16 10 -49 36 -63 128 -63 l77 -1 3 72 3 72
35 -70 c35 -69 35 -70 75 -70 l40 0 0 205 c0 197 -1 205 -20 208 -14 2 -16 0
-7 -6 9 -6 12 -53 10 -198 l-3 -189 -31 -3 c-29 -3 -32 0 -62 67 -17 38 -35
82 -39 98 -6 21 -9 3 -13 -67 l-5 -95 -37 -3 -38 -3 -2 193 -2 193 -4 -175 -4
-175 -33 145 c-53 234 -45 215 -93 218 -38 3 -43 0 -52 -24 -6 -15 -9 -32 -7
-38 2 -6 7 4 11 22 7 28 11 32 41 32 39 0 33 17 79 -196 45 -200 45 -196 4
-192 -29 3 -34 8 -46 51 -10 35 -18 47 -32 47 -13 0 -22 -9 -26 -27 -13 -62
-22 -73 -59 -73 -21 0 -35 5 -35 13 0 6 14 77 30 156 16 80 28 147 26 148 -2
2 -11 -31 -21 -74 -26 -122 -24 -118 -42 -94 -10 15 -25 21 -54 21 -34 0 -39
-3 -38 -22 1 -17 2 -19 6 -5 7 26 70 24 78 -3 9 -29 -11 -83 -41 -111 -22 -20
-36 -24 -91 -24 -98 0 -103 10 -103 190 0 139 1 144 25 174 14 16 38 32 53 34
l27 4 -26 2 c-15 0 -37 -9 -53 -24z"/>
<path d="M523 786 c51 -19 75 -42 88 -87 17 -54 7 -69 -41 -69 -38 0 -40 2
-40 30 0 34 -26 54 -53 39 -14 -8 -17 -25 -17 -99 0 -48 3 -95 6 -104 14 -36
19 -11 16 80 -3 71 0 99 9 105 18 11 29 2 29 -25 0 -33 19 -46 67 -46 37 0 43
3 49 24 16 65 -66 167 -133 166 -10 -1 -1 -7 20 -14z"/>
<path d="M924 781 c36 -6 41 -11 77 -81 43 -85 53 -86 12 -1 -38 79 -50 91
-92 90 l-36 -2 39 -6z"/>
<path d="M1164 777 c-2 -7 -3 -94 -1 -192 l2 -180 3 187 2 187 73 4 72 3 -73
2 c-51 1 -74 -2 -78 -11z"/>
<path d="M1346 748 c71 -82 67 -234 -9 -330 -11 -14 -30 -18 -91 -18 -44 0
-76 -4 -76 -10 0 -6 35 -10 84 -10 81 0 85 1 104 28 43 61 54 95 56 171 1 64
-3 84 -25 125 -14 28 -37 57 -50 65 -20 13 -19 10 7 -21z"/>
<path d="M126 739 c-14 -17 -26 -36 -26 -42 0 -7 6 -3 12 8 6 11 20 30 31 43
11 12 18 22 15 22 -4 0 -18 -14 -32 -31z"/>
<path d="M1032 730 c0 -19 2 -27 5 -17 2 9 2 25 0 35 -3 9 -5 1 -5 -18z"/>
<path d="M737 633 c-12 -67 -9 -83 14 -83 19 0 20 4 14 53 -9 66 -20 79 -28
30z m20 -65 c-3 -8 -6 -5 -6 6 -1 11 2 17 5 13 3 -3 4 -12 1 -19z"/>
<path d="M1244 657 c-3 -8 -4 -43 -2 -78 2 -52 6 -64 21 -67 20 -4 57 24 57
42 0 6 -7 0 -16 -12 -29 -42 -44 -28 -44 43 0 59 2 65 20 65 12 0 24 -10 30
-22 6 -16 9 -18 9 -7 2 31 -64 62 -75 36z"/>
<path d="M1321 584 c0 -11 3 -14 6 -6 3 7 2 16 -1 19 -3 4 -6 -2 -5 -13z"/>
<path d="M512 494 c-7 -8 -8 -14 -3 -14 10 0 25 19 20 25 -2 1 -10 -3 -17 -11z"/>
<path d="M180 250 c0 -57 3 -72 17 -77 9 -4 19 -1 21 5 2 8 8 8 22 0 28 -18
36 -2 17 37 -15 32 -15 36 1 64 19 34 10 51 -18 33 -12 -7 -21 -8 -25 -2 -3 6
-13 10 -21 10 -11 0 -14 -16 -14 -70z m30 38 l0 -23 20 25 c24 31 37 20 15
-13 -15 -23 -15 -28 -1 -56 19 -35 19 -41 6 -41 -5 0 -16 12 -24 28 l-15 27
-1 -27 c0 -16 -4 -28 -10 -28 -6 0 -10 28 -10 65 0 37 4 65 10 65 6 0 10 -10
10 -22z"/>
<path d="M306 305 c-3 -9 -6 -22 -5 -28 0 -7 4 -2 9 11 15 36 26 26 39 -35 15
-75 14 -82 -8 -54 l-19 24 -6 -21 c-8 -26 -22 -29 -29 -7 -4 11 -4 10 -3 -2 2
-24 36 -30 36 -6 1 17 1 17 14 1 7 -10 20 -18 28 -18 13 0 13 9 -1 72 -11 50
-22 74 -33 76 -8 2 -18 -4 -22 -13z"/>
<path d="M390 250 c0 -78 10 -91 59 -74 23 8 26 15 26 58 1 41 -1 45 -12 30
-9 -12 -10 -21 -3 -28 26 -26 4 -56 -41 -56 -17 0 -19 8 -19 65 0 61 1 65 23
65 13 0 29 -6 37 -12 12 -11 12 -10 1 5 -7 9 -26 17 -42 17 l-29 0 0 -70z"/>
<path d="M516 305 c-3 -9 -6 -24 -5 -33 1 -10 4 -7 8 7 11 42 27 34 39 -20 7
-28 12 -58 12 -67 -1 -15 -3 -14 -15 2 -15 20 -15 20 -30 0 -13 -16 -16 -17
-25 -4 -7 11 -10 11 -10 2 0 -18 31 -27 40 -12 7 11 11 11 24 1 28 -24 33 -6
17 64 -11 48 -21 71 -32 73 -9 2 -19 -4 -23 -13z"/>
<path d="M602 248 c2 -60 6 -73 21 -76 11 -2 17 3 17 15 1 17 1 17 11 1 5 -10
17 -18 24 -18 12 0 15 16 15 75 0 67 -2 75 -19 75 -21 0 -33 -31 -20 -51 6
-10 9 -6 9 14 0 15 5 27 10 27 6 0 10 -28 10 -65 0 -36 -4 -65 -8 -65 -5 0
-16 15 -25 33 l-16 32 0 -32 c-1 -18 -5 -33 -11 -33 -6 0 -10 29 -10 66 0 56
2 65 16 60 8 -3 12 -2 9 4 -3 6 -13 10 -21 10 -12 0 -14 -14 -12 -72z"/>
<path d="M777 313 c-4 -3 -7 -35 -7 -69 0 -53 3 -64 19 -69 43 -13 92 18 74
48 -4 6 -6 26 -5 43 2 18 -1 35 -5 37 -10 6 -8 -61 2 -85 5 -13 0 -21 -18 -29
-44 -20 -57 -7 -57 60 0 57 1 60 28 64 l27 4 -26 2 c-14 0 -29 -2 -32 -6z"/>
<path d="M918 313 c7 -3 16 -2 19 1 4 3 -2 6 -13 5 -11 0 -14 -3 -6 -6z"/>
<path d="M1010 294 c-6 -14 -10 -33 -9 -42 1 -9 6 0 11 21 7 26 15 37 24 33 8
-3 14 -1 14 4 0 21 -31 9 -40 -16z"/>
<path d="M1091 298 c1 -17 2 -19 6 -5 3 12 14 17 38 17 22 0 38 -6 44 -17 6
-10 11 -13 11 -7 0 20 -25 34 -62 34 -33 0 -38 -3 -37 -22z"/>
<path d="M1217 312 c-3 -4 9 -7 26 -7 40 0 59 -33 46 -78 -17 -61 -61 -62 -70
-2 -6 37 -6 37 -8 8 -2 -45 8 -63 34 -63 50 0 78 88 40 130 -18 20 -59 27 -68
12z"/>
<path d="M886 294 c-12 -30 -6 -93 10 -108 33 -34 75 -12 73 38 -2 31 -2 31
-8 -4 -7 -38 -31 -51 -58 -29 -11 10 -14 26 -11 66 5 56 4 63 -6 37z"/>
<path d="M956 297 c3 -10 9 -15 12 -12 3 3 0 11 -7 18 -10 9 -11 8 -5 -6z"/>
<path d="M420 275 c0 -9 5 -15 11 -13 6 2 11 8 11 13 0 5 -5 11 -11 13 -6 2
-11 -4 -11 -13z"/>
<path d="M806 283 c-11 -11 -6 -23 9 -23 8 0 15 4 15 9 0 13 -16 22 -24 14z"/>
<path d="M913 275 c-3 -9 -3 -19 1 -22 3 -4 6 1 6 10 0 8 6 18 13 20 9 4 9 6
-1 6 -7 1 -15 -6 -19 -14z"/>
<path d="M1055 264 c2 -18 7 -43 11 -58 8 -32 -9 -34 -24 -3 l-11 22 -7 -22
c-9 -31 -22 -29 -27 5 -4 25 -4 25 -6 -5 -1 -24 3 -33 14 -33 9 0 18 7 22 16
5 15 7 15 15 0 11 -19 38 -22 38 -3 0 6 -7 35 -15 62 -8 28 -13 36 -10 19z"/>
<path d="M1130 275 c0 -9 5 -15 11 -13 6 2 11 8 11 13 0 5 -5 11 -11 13 -6 2
-11 -4 -11 -13z"/>
<path d="M1246 273 c-3 -3 -6 -17 -6 -30 0 -26 25 -31 34 -7 5 14 4 15 -9 4
-12 -10 -15 -10 -15 3 0 8 5 17 12 19 8 3 9 6 1 11 -5 4 -13 4 -17 0z"/>
<path d="M320 253 c0 -13 5 -23 10 -23 13 0 13 11 0 30 -8 12 -10 11 -10 -7z"/>
<path d="M530 251 c0 -12 5 -21 10 -21 6 0 10 6 10 14 0 8 -4 18 -10 21 -5 3
-10 -3 -10 -14z"/>
<path d="M942 250 c0 -14 2 -19 5 -12 2 6 2 18 0 25 -3 6 -5 1 -5 -13z"/>
<path d="M1027 250 c-3 -11 -1 -20 4 -20 5 0 9 9 9 20 0 11 -2 20 -4 20 -2 0
-6 -9 -9 -20z"/>
<path d="M1168 249 c-15 -16 -15 -19 0 -31 13 -10 14 -10 8 0 -4 7 -2 20 5 28
17 21 7 24 -13 3z"/>
<path d="M292 240 c0 -14 2 -19 5 -12 2 6 2 18 0 25 -3 6 -5 1 -5 -13z"/>
<path d="M502 230 c0 -14 2 -19 5 -12 2 6 2 18 0 25 -3 6 -5 1 -5 -13z"/>
<path d="M420 220 c0 -13 5 -20 13 -17 6 2 12 10 12 17 0 7 -6 15 -12 18 -8 2
-13 -5 -13 -18z"/>
<path d="M805 230 c-4 -6 -3 -16 3 -22 6 -6 12 -6 17 2 4 6 3 16 -3 22 -6 6
-12 6 -17 -2z"/>
<path d="M910 226 c0 -8 4 -17 9 -20 5 -4 7 3 4 14 -6 23 -13 26 -13 6z"/>
<path d="M1130 206 c0 -21 -4 -27 -15 -22 -8 3 -15 1 -15 -4 0 -16 30 -11 36
5 6 14 8 13 19 -1 13 -19 51 -12 39 7 -4 8 -9 7 -16 -2 -6 -10 -11 -10 -14 -3
-3 6 -11 20 -19 30 -14 18 -14 17 -15 -10z"/>
</g>
</svg>
